<?xml version="1.0" encoding="utf-8"?>
<!-- Generator: Adobe Illustrator 18.1.1, SVG Export Plug-In . SVG Version: 6.00 Build 0)  -->
<!DOCTYPE svg PUBLIC "-//W3C//DTD SVG 1.1//EN" "http://www.w3.org/Graphics/SVG/1.1/DTD/svg11.dtd">
<svg version="1.1" id="Layer_1" xmlns="http://www.w3.org/2000/svg" xmlns:xlink="http://www.w3.org/1999/xlink" x="0px" y="0px"
	 viewBox="0 0 318 317.3" enable-background="new 0 0 318 317.3" xml:space="preserve">
<text transform="matrix(1 0 0 1 415.3413 354.2302)" font-family="'MyriadPro-Regular'" font-size="12">AVENIR NEXT</text>
<text transform="matrix(1 0 0 1 414.5476 369.7064)" font-family="'MyriadPro-Regular'" font-size="12">ARCHER BOLD</text>
<g>
	<g>
		<circle fill="#FBFAF5" cx="159.6" cy="158.2" r="153.1"/>
	</g>
	<g>
		<path fill="#F78D22" d="M66,81.4c-3.5-3.7-3.1-9.1,0.4-12.4c2.9-2.7,6.2-3,7.5-1.5c0.8,0.9,0.8,2.1,0.1,2.8
			c-0.8,0.8-1.9,0.8-2.7,0c-0.2-0.2-0.4-0.5-0.5-0.8c-0.6,0.1-1.6,0.4-2.7,1.5c-2.4,2.3-2.5,5.8-0.1,8.4c2.3,2.5,5.9,2.8,8.5,0.4
			c1.4-1.4,2-3.1,2-4.9l2.8,0.1c0.1,2.4-1,4.9-2.9,6.8C74.7,85.2,69.6,85.2,66,81.4z"/>
		<path fill="#F78D22" d="M91.1,67.7l1.6-1l-6-10l-1.6,1l-1.3-2.2l6-3.6l1.3,2.2l-1.9,1.2l6.1,10l4-2.4l-1.2-2l2.4-1.4l2.6,4.2
			l-10.5,6.3L91.1,67.7z"/>
		<path fill="#F78D22" d="M112.2,56.3l1.8-0.6l-3.9-11l-1.8,0.6l-0.9-2.4l11.9-4.2l1.6,4.5l-2.6,0.9l-0.8-2.1l-4.7,1.7l1.5,4.2
			l4.8-1.7l0.8,2.3l-4.8,1.7l1.6,4.5l4.7-1.7l-0.8-2.1l2.6-0.9l1.6,4.5l-11.9,4.2L112.2,56.3z"/>
		<path fill="#F78D22" d="M135,49.2l1.4-0.2l2.7-12.1l-1.8,0.2l-0.3-2.5l9.5-1.2l0.3,2.5l-1.8,0.2l5.6,11.1l1.4-0.2l0.3,2.6
			l-6.4,0.8l-0.3-2.5l1.9-0.2l-1.3-2.6l-6.3,0.8l-0.6,2.9l2-0.3l0.3,2.5l-6.4,0.8L135,49.2z M145.2,42.8l-3.2-6.3l-1.5,6.9
			L145.2,42.8z"/>
		<path fill="#F78D22" d="M169,38.5l-0.9,9l2.1,0.2l-0.3,2.6l-6.8-0.7l0.3-2.6l1.9,0.2l1.2-11.6l-1.9-0.2l0.3-2.6l4.4,0.5l7.1,11.4
			l0.8-8l-2.1-0.2l0.3-2.6l6.7,0.7l-0.3,2.6L180,37l-1.5,14.2l-1.6-0.1L169,38.5z"/>
		<path fill="#F78D22" d="M191.9,51.6l2,0.6l3.5-11.1l-2-0.6l0.8-2.5l6.7,2.1l-0.8,2.5l-2-0.6l-3.5,11.1l2,0.6l-0.8,2.5l-6.7-2.1
			L191.9,51.6z"/>
		<path fill="#F78D22" d="M218.2,52.3l-4.4,7.9l1.8,1l-1.2,2.3l-6-3.3l1.2-2.3l1.7,0.9l5.6-10.3l-1.7-0.9l1.2-2.3l3.8,2.1l2.2,13.3
			l3.8-7l-1.8-1l1.2-2.3l5.9,3.3l-1.2,2.3l-1.6-0.9l-6.9,12.5l-1.4-0.7L218.2,52.3z"/>
		<path fill="#F78D22" d="M238.4,68.9c3.5-3.9,8.8-3.9,12.5-0.6c2.9,2.6,3.5,5.9,2.1,7.4c-0.8,0.9-2,1-2.8,0.3
			c-0.9-0.8-1-1.8-0.2-2.7c0.2-0.2,0.5-0.4,0.7-0.5c-0.1-0.6-0.6-1.6-1.7-2.6c-2.4-2.2-5.9-2.1-8.4,0.6c-2.5,2.8-2.1,6.3,0,8.2
			c1.3,1.2,2.5,1.7,3.7,1.9l1.9-2.1l-3.1-2.8l1.7-1.8l5.2,4.7l-5.9,6.5l-2-1.9l0.8-0.9c-1.5-0.1-3-0.7-4.4-1.9
			C235.5,78,234.8,72.9,238.4,68.9z"/>
	</g>
	<g>
		<path fill="#F78D22" d="M81.8,256.3c0.8-0.9,1.8-1.1,2.6-0.4c0.9,0.7,0.9,1.8,0.4,2.5c-0.3,0.3-0.5,0.5-0.8,0.7
			c0.2,0.7,0.8,1.5,1.6,2.2c1.4,1.2,2.9,1.3,3.8,0.1c0.9-1.1,0.2-2.5-0.7-4c-1.7-2.8-2.8-5-0.8-7.4c1.7-2.1,4.7-2.3,7.4-0.2
			c2.4,2,3.3,4.8,2,6.3c-0.8,0.9-1.8,1-2.5,0.4c-0.9-0.7-0.9-1.8-0.4-2.5c0.3-0.3,0.4-0.4,0.6-0.5c-0.2-0.5-0.6-1.1-1.4-1.8
			c-1.3-1-2.6-1-3.4-0.1c-0.9,1.1-0.2,2.4,0.8,4c1.7,2.7,2.8,5,0.8,7.4c-2,2.5-5.1,2.3-7.8,0.2C81.4,261.1,80.5,257.9,81.8,256.3z"
			/>
		<path fill="#F78D22" d="M102.4,272.3l1.7,0.8l5.1-10.5l-1.7-0.8l1.1-2.3L120,265l-2.1,4.3l-2.5-1.2l1-2l-4.5-2.2l-2,4.1l4.6,2.2
			l-1.1,2.2l-4.6-2.2l-2.1,4.3l4.5,2.2l1-2l2.5,1.2l-2.1,4.3l-11.3-5.5L102.4,272.3z"/>
		<path fill="#F78D22" d="M127.2,282.6l1.9,0.4l2.5-11.4l-1.9-0.4l0.6-2.5l6.4,1.4c3.8,0.8,6.1,3,5.4,6.4c-0.5,2.1-2.1,3.5-4.1,3.8
			l1.5,5l1.9,0.4l-0.6,2.5l-3.8-0.8l-1.9-7c-0.4-0.1-0.7-0.1-1-0.2c-0.5-0.1-1-0.2-1.3-0.3l-0.8,3.7l2.1,0.4l-0.6,2.5l-6.8-1.5
			L127.2,282.6z M139.1,276c0.4-1.7-0.9-2.9-3.1-3.4l-1.5-0.3l-1.2,5.3c0.3,0.1,0.7,0.2,1.6,0.4C137,278.4,138.7,277.7,139.1,276z"
			/>
		<path fill="#F78D22" d="M154.7,275.3l-1.5,0l-0.1-2.6l6.7-0.2l0.1,2.6l-1.8,0l3.9,9.2l3.4-9.3l-1.9,0l-0.1-2.6l6.7-0.2l0.1,2.6
			l-1.5,0l-5.8,14.6l-1.6,0L154.7,275.3z"/>
		<path fill="#F78D22" d="M183.4,284.3l2-0.5l-2.8-11.4l-2,0.5l-0.6-2.5l6.8-1.7l0.6,2.5l-2,0.5l2.8,11.4l2-0.5l0.6,2.5l-6.8,1.7
			L183.4,284.3z"/>
		<path fill="#F78D22" d="M201,273c-2.3-4.5-0.4-9.6,4-11.8c3.5-1.7,6.8-1.1,7.7,0.7c0.5,1.1,0.2,2.2-0.7,2.7
			c-1,0.5-2.1,0.2-2.6-0.8c-0.1-0.3-0.2-0.6-0.2-0.9c-0.6-0.1-1.6,0-3,0.6c-2.9,1.5-4.1,4.8-2.5,8c1.5,3,4.8,4.4,8,2.8
			c1.8-0.9,2.8-2.4,3.3-4.1l2.6,0.9c-0.7,2.4-2.3,4.4-4.8,5.6C208.2,279.2,203.4,277.7,201,273z"/>
		<path fill="#F78D22" d="M229.5,263.3l1.5-1.2l-7.6-8.9l-1.5,1.2l-1.7-2l9.6-8.2l3.1,3.7l-2.1,1.8l-1.5-1.7l-3.8,3.2l2.9,3.4
			l3.9-3.3l1.6,1.9l-3.9,3.3l3.1,3.6l3.8-3.3l-1.5-1.7l2.1-1.8l3.1,3.7l-9.6,8.2L229.5,263.3z"/>
	</g>
	<g>
		<path fill="#516F6A" d="M159.3,315.6c-86.6,0-157-70.4-157-157s70.4-157,157-157s157,70.4,157,157S245.9,315.6,159.3,315.6z
			 M159.3,9.5C77.1,9.5,10.2,76.4,10.2,158.7s66.9,149.2,149.2,149.2c82.3,0,149.2-66.9,149.2-149.2S241.6,9.5,159.3,9.5z"/>
	</g>
	<g>
		<path fill="#516F6A" d="M159.3,304.5c-80.4,0-145.9-65.4-145.9-145.9S78.9,12.8,159.3,12.8s145.9,65.4,145.9,145.9
			S239.8,304.5,159.3,304.5z M159.3,14.7C80,14.7,15.4,79.3,15.4,158.7S80,302.6,159.3,302.6c79.4,0,143.9-64.6,143.9-143.9
			S238.7,14.7,159.3,14.7z"/>
	</g>
	<g>
		<polygon fill="#516F6A" points="102.6,191 98.6,186.9 96.9,191 62.5,191 62.5,108.9 62.4,108.9 58.2,104.8 53.2,108.8 53.4,108.9 
			37.2,108.9 37.2,207.5 33.1,208.7 37.2,212.9 102.7,212.9 102.7,191 		"/>
	</g>
	<g>
		<path fill="#97D5CF" d="M33,208.7v-104h25.3v82.1h40.2v21.9H33z"/>
	</g>
	<g>
		<path fill="#516F6A" d="M188.8,187l22.5-30.1h-0.1l-4.1-4.1l-6.9,5.4l0.9,0.5c-0.3,0-0.7,0-1-0.1c-0.4,0.1-1.1,0.3-1.8,0.6
			c-0.4,0.5-1,0.9-1.6,1.1c-0.3,0.1-0.5,0.2-0.8,0.3c-1.9,0.7-3.7-1-4-2.8c-2.7,0.8-11.2,10.3-12,11.3c-1.8,2.2-3.2,4.1-6.1,4.5
			c-4.6,0.7-10.7-3.5-13.1-7.5c-0.7-0.2-1.2-0.7-1.5-1.2c-0.5-0.5-0.8-1.2-0.8-2.1v-0.1c0-1.6,1-2.6,2.2-2.9l0.3-0.3
			c2.8-1.5,5.5-3.1,8.1-4.8c2.5-1.8,4.8-3.7,6.7-5.9c1.9-2.2,3.4-4.6,4.5-7.3c1.1-2.7,1.6-5.7,1.6-9c0-4.6-0.9-8.6-2.7-11.9
			c-0.3-0.6-0.7-1.2-1.1-1.8c0,0,0,0,0,0s-8.2-13.8-24.4-16.2c0,0,1.6,1.8,3.7,4.1c-2.4-0.4-4.9-0.6-7.3-0.6
			c-3.8,0-7.7,0.5-11.5,1.5c-3.9,1-7.3,2.5-10.4,4.7c-3.1,2.2-5.6,4.9-7.6,8.2c-2,3.3-2.9,7.3-2.9,12c0,4.5,1,8.6,2.9,12.3
			c2,3.7,4.6,7.1,7.8,10.3c-2.8,1.3-5.6,2.8-8.2,4.6c-2.6,1.8-5,3.8-7,6.2c-2,2.4-3.6,5-4.8,8.1c-1.2,3-1.8,6.4-1.8,10
			c0,3,0.4,5.8,1.1,8.3l-3.3-1.5c0,0,3.4,9.1,13.4,16.3c0.1,0.1,0.2,0.2,0.3,0.3c3.5,2.6,7.5,4.5,12,5.7c0,0,0,0,0.1,0
			c0.1,0,0.2,0.1,0.3,0.1l0,0c4.4,1.2,8.9,1.8,13.5,1.8c7.2,0,13.3-1.2,18.1-3.5c4.8-2.3,8.9-5.2,12.3-8.7l9.8,10.1h30.4L188.8,187z
			 M143.3,126.3c1.9-1.8,4.3-2.7,7.1-2.7c3,0,5.4,0.9,7.2,2.8c1.8,1.9,2.6,4.1,2.6,6.8c0,3.1-1.2,5.8-3.5,8.1
			c-2.3,2.3-5.2,4.1-8.5,5.4c-2.5-2.1-4.5-4.2-5.8-6.5c-1.3-2.3-2-4.6-2-7C140.4,130.4,141.4,128.1,143.3,126.3z M153.5,193.7
			c-2.5,1.4-5.4,2.1-8.7,2.1c-1.8,0-3.5-0.3-5.1-0.9c-1.7-0.6-3.2-1.4-4.5-2.6c-1.3-1.1-2.4-2.5-3.2-4.1c-0.8-1.6-1.2-3.5-1.2-5.5
			c0-3.9,1.1-6.9,3.3-9c2.2-2.1,4.8-3.7,7.7-4.9l18.4,19.1C158.3,190.4,156.1,192.4,153.5,193.7z"/>
	</g>
	<g>
		<path fill="#97D5CF" d="M180,208.5l-9.8-10.1c-3.3,3.5-7.4,6.4-12.3,8.7c-4.8,2.3-10.9,3.5-18.1,3.5c-4.7,0-9.3-0.6-13.8-1.8
			c-4.5-1.2-8.5-3.1-12-5.7c-3.5-2.6-6.3-5.8-8.4-9.7c-2.1-3.9-3.2-8.4-3.2-13.7c0-3.6,0.6-7,1.8-10c1.2-3,2.8-5.7,4.8-8.1
			c2-2.3,4.3-4.4,7-6.2c2.6-1.8,5.4-3.3,8.2-4.6c-3.2-3.1-5.8-6.6-7.8-10.3c-2-3.7-2.9-7.8-2.9-12.3c0-4.7,1-8.7,2.9-12
			c2-3.3,4.5-6.1,7.6-8.2c3.1-2.2,6.6-3.7,10.4-4.7c3.9-1,7.7-1.5,11.5-1.5c3.9,0,7.8,0.5,11.6,1.5c3.8,1,7.2,2.6,10.2,4.8
			c3,2.2,5.4,4.9,7.2,8.2c1.8,3.3,2.7,7.3,2.7,11.9c0,3.3-0.5,6.3-1.6,9c-1.1,2.7-2.6,5.1-4.5,7.3c-1.9,2.2-4.1,4.2-6.7,5.9
			c-2.5,1.8-5.2,3.4-8.1,4.8l13.1,13.4l10.4-16h26.7l-22.5,30.1l25.8,25.7H180z M137.6,164.6c-2.9,1.2-5.5,2.8-7.7,4.9
			c-2.2,2.1-3.3,5.1-3.3,9c0,2.1,0.4,3.9,1.2,5.5c0.8,1.6,1.9,3,3.2,4.1c1.3,1.1,2.8,2,4.5,2.6c1.7,0.6,3.4,0.9,5.1,0.9
			c3.2,0,6.1-0.7,8.7-2.1c2.5-1.4,4.7-3.3,6.6-5.9L137.6,164.6z M156.1,128.9c0-2.6-0.9-4.9-2.6-6.8c-1.8-1.9-4.2-2.8-7.2-2.8
			c-2.8,0-5.2,0.9-7.1,2.7c-1.9,1.8-2.9,4.1-2.9,6.8c0,2.4,0.7,4.8,2,7c1.3,2.3,3.3,4.4,5.8,6.5c3.3-1.4,6.2-3.2,8.5-5.4
			C154.9,134.8,156.1,132.1,156.1,128.9z"/>
	</g>
	<g>
		<g>
			<path fill="#516F6A" d="M288.6,172.8L288.6,172.8c0.1,0,0-0.3-0.2-0.8c-0.4-1-0.9-2-1.4-2.9c-0.2-0.3-0.4-0.6-0.6-0.9
				c-3-5-9.1-12.9-20-17.1l1.7,3.4c-3.6-1.3-7-2.5-10.3-3.6c-2.4-0.8-4.7-1.5-6.6-2.3c-2-0.7-3.6-1.5-5.1-2.4
				c-1.4-0.9-2.5-1.9-3.2-3.1c-0.7-1.2-1.1-2.6-1.1-4.4c0-2.1,0.5-3.7,1.4-5.1c0.9-1.3,2.1-2.4,3.4-3.2c1.4-0.8,2.9-1.4,4.6-1.7
				c1.7-0.3,3.4-0.4,5-0.4c9.8,1,16.4,11.6,16.4,11.6l15.9-16.9l-2.1-7.1l-9.6,10.2l-2.8-3c0.5-1.5,1-3,1.7-4.5
				c0.9-1.9,2.1-4.1,3.6-5.5c0.1-0.1,0.3-0.2,0.5-0.3c-1.6-0.8-3.3-1.5-5-2.1c-6.1-2.2-12.1-3.2-18-3.2c-4.9,0-9.7,0.6-14.5,1.8
				c-4.8,1.2-9.1,3.2-12.9,5.8c-3.8,2.6-6.9,6-9.3,10.1c-2.3,4.1-3.5,9.1-3.5,14.8c0,2.6,0.3,5,0.7,7.2l-3.1-0.4
				c2.8,7.6,9.6,13.2,13.8,16.1c0.6,0.4,1.3,0.9,1.9,1.3c0.3,0.2,0.6,0.4,0.9,0.5c0.1,0.1,0.2,0.1,0.3,0.2c0.4,0.2,0.6,0.4,0.6,0.4
				l0,0c0.5,0.3,1.1,0.6,1.6,0.8c3.2,1.5,6.4,2.7,9.8,3.8c3.4,1.1,6.5,2.1,9.2,3c2.7,0.9,4.9,2,6.8,3.1c1.8,1.1,3.2,2.4,4.2,3.7
				c1,1.4,1.5,3,1.5,5c0,2.1-0.4,3.8-1.2,5.3s-1.8,2.6-3.2,3.5c-1.3,0.9-2.9,1.5-4.6,1.9c-1.8,0.4-3.6,0.6-5.4,0.6
				c-4.1,0-8.2-1.1-12.4-3.2c-4.2-2.1-7.5-4.7-10.1-7.9l-15.7,16l-1.5-2.6l-3.6-1.1l4.3,4.4c4.6,4.8,10.4,8.5,17.3,11.1
				c7,2.6,14.1,3.9,21.6,3.9c5.1,0,10-0.7,14.8-2.1c4.8-1.4,9.1-3.5,12.8-6.3c3.7-2.8,6.7-6.4,8.9-10.8c2.2-4.4,3.3-9.5,3.3-15.5
				C290.1,178.6,289.6,175.5,288.6,172.8z"/>
		</g>
	</g>
	<g>
		<path fill="#97D5CF" d="M270.5,132.7c-2.2-2.7-5-4.9-8.4-6.5c-3.5-1.6-6.8-2.4-10.1-2.4c-1.7,0-3.4,0.1-5.1,0.4
			c-1.7,0.3-3.3,0.9-4.6,1.7c-1.4,0.8-2.5,1.9-3.4,3.2c-0.9,1.3-1.4,3-1.4,5.1c0,1.8,0.4,3.2,1.1,4.4c0.7,1.2,1.8,2.2,3.2,3.1
			c1.4,0.9,3.1,1.7,5.1,2.4c2,0.7,4.2,1.5,6.6,2.3c3.5,1.2,7.2,2.5,11,3.9c3.8,1.4,7.3,3.3,10.4,5.7c3.1,2.3,5.7,5.3,7.8,8.7
			c2.1,3.5,3.1,7.8,3.1,13c0,6-1.1,11.1-3.3,15.5c-2.2,4.4-5.2,8-8.9,10.8c-3.7,2.8-8,4.9-12.8,6.3c-4.8,1.4-9.7,2.1-14.8,2.1
			c-7.4,0-14.6-1.3-21.6-3.9c-7-2.6-12.7-6.3-17.3-11.1l16.4-16.7c2.5,3.1,5.9,5.8,10.1,7.9c4.2,2.1,8.3,3.2,12.4,3.2
			c1.9,0,3.7-0.2,5.4-0.6c1.8-0.4,3.3-1,4.6-1.9c1.3-0.9,2.4-2.1,3.2-3.5s1.2-3.2,1.2-5.3c0-2-0.5-3.6-1.5-5c-1-1.4-2.4-2.6-4.2-3.7
			c-1.8-1.1-4.1-2.2-6.8-3.1c-2.7-0.9-5.8-1.9-9.2-3c-3.3-1.1-6.6-2.4-9.8-3.8c-3.2-1.5-6-3.4-8.5-5.7c-2.5-2.3-4.5-5.1-6-8.4
			c-1.5-3.3-2.3-7.3-2.3-12c0-5.8,1.2-10.7,3.5-14.8c2.3-4.1,5.4-7.5,9.3-10.1c3.8-2.6,8.1-4.6,12.9-5.8c4.8-1.2,9.6-1.8,14.5-1.8
			c5.9,0,11.9,1.1,18,3.2c6.1,2.2,11.5,5.3,16.1,9.5L270.5,132.7z"/>
	</g>
</g>
<g>
	<circle fill="#FBFAF5" cx="530" cy="67" r="67.9"/>
	<path id="SVGID_x5F_1_x5F_" fill="none" d="M582.4,71.6c0,29.1-23.6,52.6-52.6,52.6c-29.1,0-52.6-23.6-52.6-52.6
		s23.6-52.6,52.6-52.6C558.8,18.9,582.4,42.5,582.4,71.6z"/>
	<text>	<textPath  xlink:href="#SVGID_x5F_1_x5F_" startOffset="6215.7085%">
<tspan  fill="#F78D22" font-family="'Archer-Bold'" font-size="11.3562" letter-spacing="400">CLEANING	</tspan>	</textPath>
</text>
	<path id="SVGID_x5F_2_x5F_" fill="none" d="M582.4,72.5c0-29.1-23.6-52.6-52.6-52.6c-29.1,0-52.6,23.6-52.6,52.6
		s23.6,52.6,52.6,52.6C558.8,125.1,582.4,101.6,582.4,72.5z"/>
	<text>	<textPath  xlink:href="#SVGID_x5F_2_x5F_" startOffset="217.5163%">
<tspan  fill="#F78D22" font-family="'Archer-Bold'" font-size="11.3562" letter-spacing="400">SERVICE</tspan>	</textPath>
</text>
	<path fill="#516F6A" d="M529.9,136.7c-38.4,0-69.6-31.2-69.6-69.6s31.2-69.6,69.6-69.6c38.4,0,69.6,31.2,69.6,69.6
		S568.2,136.7,529.9,136.7z M529.9,1.1c-36.4,0-66.1,29.7-66.1,66.1s29.7,66.1,66.1,66.1c36.4,0,66.1-29.7,66.1-66.1
		S566.3,1.1,529.9,1.1z"/>
	<path fill="#516F6A" d="M529.9,131.8c-35.6,0-64.6-29-64.6-64.6s29-64.6,64.6-64.6s64.6,29,64.6,64.6S565.5,131.8,529.9,131.8z
		 M529.9,3.4c-35.2,0-63.8,28.6-63.8,63.8s28.6,63.8,63.8,63.8c35.2,0,63.8-28.6,63.8-63.8S565.1,3.4,529.9,3.4z"/>
	<polygon fill="#516F6A" points="504.8,81.5 503,79.7 502.2,81.5 487,81.5 487,45.1 486.9,45.1 485.1,43.3 482.9,45.1 483,45.1 
		475.8,45.1 475.8,88.8 473.9,89.4 475.8,91.2 504.8,91.2 504.8,81.5 	"/>
	<path fill="#97D5CF" d="M473.9,89.4V43.3h11.2v36.4H503v9.7H473.9z"/>
	<path fill="#516F6A" d="M542.9,79.7l10-13.3h-0.1l-1.8-1.8L548,67l0.4,0.2c-0.2,0-0.3,0-0.5,0c-0.2,0-0.5,0.1-0.8,0.3
		c-0.2,0.2-0.4,0.4-0.7,0.5c-0.1,0-0.2,0.1-0.3,0.1c-0.9,0.3-1.6-0.4-1.8-1.2c-1.2,0.4-5,4.6-5.3,5c-0.8,1-1.4,1.8-2.7,2
		c-2,0.3-4.7-1.6-5.8-3.3c-0.3-0.1-0.5-0.3-0.7-0.5c-0.2-0.2-0.4-0.5-0.4-0.9v0c0-0.7,0.5-1.1,1-1.3l0.1-0.1
		c1.3-0.7,2.5-1.4,3.6-2.1c1.1-0.8,2.1-1.7,3-2.6c0.8-1,1.5-2.1,2-3.3c0.5-1.2,0.7-2.5,0.7-4c0-2-0.4-3.8-1.2-5.3
		c-0.1-0.3-0.3-0.5-0.5-0.8c0,0,0,0,0,0s-3.6-6.1-10.8-7.2c0,0,0.7,0.8,1.6,1.8c-1.1-0.2-2.2-0.3-3.2-0.3c-1.7,0-3.4,0.2-5.1,0.7
		c-1.7,0.4-3.3,1.1-4.6,2.1c-1.4,1-2.5,2.2-3.4,3.6c-0.9,1.5-1.3,3.3-1.3,5.3c0,2,0.4,3.8,1.3,5.5c0.9,1.6,2,3.2,3.4,4.6
		c-1.3,0.6-2.5,1.2-3.6,2c-1.2,0.8-2.2,1.7-3.1,2.7c-0.9,1-1.6,2.2-2.1,3.6c-0.5,1.3-0.8,2.8-0.8,4.4c0,1.3,0.2,2.6,0.5,3.7
		l-1.5-0.6c0,0,1.5,4.1,5.9,7.2c0.1,0,0.1,0.1,0.1,0.1c1.5,1.2,3.3,2,5.3,2.5c0,0,0,0,0,0c0,0,0.1,0,0.1,0l0,0c2,0.5,3.9,0.8,6,0.8
		c3.2,0,5.9-0.5,8-1.5c2.1-1,4-2.3,5.4-3.9l4.4,4.5h13.5L542.9,79.7z M522.8,52.8c0.8-0.8,1.9-1.2,3.2-1.2c1.3,0,2.4,0.4,3.2,1.2
		c0.8,0.8,1.2,1.8,1.2,3c0,1.4-0.5,2.6-1.6,3.6c-1,1-2.3,1.8-3.8,2.4c-1.1-0.9-2-1.9-2.6-2.9c-0.6-1-0.9-2-0.9-3.1
		C521.5,54.6,521.9,53.6,522.8,52.8z M527.3,82.7c-1.1,0.6-2.4,0.9-3.8,0.9c-0.8,0-1.5-0.1-2.3-0.4c-0.7-0.3-1.4-0.6-2-1.1
		c-0.6-0.5-1.1-1.1-1.4-1.8c-0.4-0.7-0.6-1.5-0.6-2.4c0-1.7,0.5-3.1,1.5-4c1-0.9,2.1-1.7,3.4-2.2l8.1,8.5
		C529.4,81.3,528.4,82.1,527.3,82.7z"/>
	<path fill="#97D5CF" d="M539.1,89.3l-4.4-4.5c-1.5,1.6-3.3,2.9-5.4,3.9s-4.8,1.5-8,1.5c-2.1,0-4.1-0.3-6.1-0.8
		c-2-0.5-3.8-1.4-5.3-2.5c-1.5-1.1-2.8-2.6-3.7-4.3c-0.9-1.7-1.4-3.7-1.4-6.1c0-1.6,0.3-3.1,0.8-4.4c0.5-1.3,1.2-2.5,2.1-3.6
		c0.9-1,1.9-2,3.1-2.7c1.2-0.8,2.4-1.5,3.6-2c-1.4-1.4-2.6-2.9-3.4-4.6c-0.9-1.6-1.3-3.5-1.3-5.5c0-2.1,0.4-3.9,1.3-5.3
		c0.9-1.5,2-2.7,3.4-3.6c1.4-1,2.9-1.6,4.6-2.1c1.7-0.4,3.4-0.7,5.1-0.7c1.7,0,3.4,0.2,5.1,0.7c1.7,0.5,3.2,1.2,4.5,2.1
		c1.3,1,2.4,2.2,3.2,3.6c0.8,1.5,1.2,3.2,1.2,5.3c0,1.5-0.2,2.8-0.7,4c-0.5,1.2-1.1,2.3-2,3.3c-0.8,1-1.8,1.9-3,2.6
		c-1.1,0.8-2.3,1.5-3.6,2.1l5.8,5.9l4.6-7.1H551l-10,13.3l11.5,11.4H539.1z M520.3,69.8c-1.3,0.5-2.4,1.2-3.4,2.2
		c-1,0.9-1.5,2.3-1.5,4c0,0.9,0.2,1.7,0.6,2.4c0.4,0.7,0.8,1.3,1.4,1.8c0.6,0.5,1.2,0.9,2,1.1c0.7,0.3,1.5,0.4,2.3,0.4
		c1.4,0,2.7-0.3,3.8-0.9c1.1-0.6,2.1-1.5,2.9-2.6L520.3,69.8z M528.5,54c0-1.2-0.4-2.2-1.2-3c-0.8-0.8-1.8-1.2-3.2-1.2
		c-1.3,0-2.3,0.4-3.2,1.2c-0.8,0.8-1.3,1.8-1.3,3c0,1.1,0.3,2.1,0.9,3.1c0.6,1,1.4,2,2.6,2.9c1.5-0.6,2.7-1.4,3.8-2.4
		C527.9,56.6,528.5,55.4,528.5,54z"/>
	<g>
		<path fill="#516F6A" d="M587.2,73.5L587.2,73.5c0,0,0-0.1-0.1-0.4c-0.2-0.5-0.4-0.9-0.6-1.3c-0.1-0.1-0.2-0.3-0.3-0.4
			c-1.3-2.2-4-5.7-8.9-7.6l0.8,1.5c-1.6-0.6-3.1-1.1-4.6-1.6c-1.1-0.3-2.1-0.7-2.9-1c-0.9-0.3-1.6-0.7-2.2-1.1
			c-0.6-0.4-1.1-0.8-1.4-1.4c-0.3-0.5-0.5-1.2-0.5-2c0-0.9,0.2-1.7,0.6-2.2c0.4-0.6,0.9-1.1,1.5-1.4c0.6-0.4,1.3-0.6,2.1-0.7
			c0.7-0.1,1.5-0.2,2.2-0.2c4.3,0.5,7.3,5.1,7.3,5.1l7-7.5l-0.9-3.1l-4.3,4.5l-1.2-1.3c0.2-0.7,0.4-1.3,0.7-2
			c0.4-0.8,0.9-1.8,1.6-2.4c0.1-0.1,0.1-0.1,0.2-0.1c-0.7-0.3-1.4-0.7-2.2-0.9c-2.7-1-5.4-1.4-8-1.4c-2.2,0-4.3,0.3-6.4,0.8
			c-2.1,0.5-4,1.4-5.7,2.6c-1.7,1.2-3.1,2.7-4.1,4.5c-1,1.8-1.6,4-1.6,6.6c0,1.2,0.1,2.2,0.3,3.2l-1.4-0.2c1.3,3.4,4.2,5.8,6.1,7.1
			c0.3,0.2,0.6,0.4,0.9,0.6c0.2,0.1,0.3,0.2,0.4,0.2c0,0,0.1,0.1,0.1,0.1c0.2,0.1,0.3,0.2,0.3,0.2l0,0c0.2,0.1,0.5,0.3,0.7,0.4
			c1.4,0.7,2.9,1.2,4.3,1.7c1.5,0.5,2.9,0.9,4.1,1.3c1.2,0.4,2.2,0.9,3,1.4c0.8,0.5,1.4,1.1,1.9,1.7c0.4,0.6,0.7,1.3,0.7,2.2
			c0,0.9-0.2,1.7-0.5,2.3c-0.3,0.7-0.8,1.2-1.4,1.6c-0.6,0.4-1.3,0.7-2,0.8c-0.8,0.2-1.6,0.3-2.4,0.3c-1.8,0-3.7-0.5-5.5-1.4
			c-1.8-0.9-3.3-2.1-4.5-3.5l-7,7.1l-0.7-1.1l-1.6-0.5l1.9,2c2,2.1,4.6,3.8,7.7,4.9c3.1,1.1,6.3,1.7,9.6,1.7c2.3,0,4.4-0.3,6.6-0.9
			c2.1-0.6,4-1.5,5.7-2.8c1.6-1.3,3-2.9,3.9-4.8c1-1.9,1.5-4.2,1.5-6.9C587.8,76,587.6,74.7,587.2,73.5z"/>
	</g>
	<path fill="#97D5CF" d="M579.1,55.7c-1-1.2-2.2-2.2-3.7-2.9c-1.5-0.7-3-1.1-4.5-1.1c-0.7,0-1.5,0.1-2.2,0.2
		c-0.8,0.1-1.4,0.4-2.1,0.7c-0.6,0.4-1.1,0.8-1.5,1.4c-0.4,0.6-0.6,1.3-0.6,2.2c0,0.8,0.2,1.4,0.5,2c0.3,0.5,0.8,1,1.4,1.4
		c0.6,0.4,1.4,0.7,2.2,1.1c0.9,0.3,1.8,0.7,2.9,1c1.6,0.5,3.2,1.1,4.9,1.7c1.7,0.6,3.2,1.5,4.6,2.5c1.4,1,2.5,2.3,3.4,3.9
		c0.9,1.5,1.4,3.5,1.4,5.8c0,2.6-0.5,4.9-1.5,6.9c-1,1.9-2.3,3.5-3.9,4.8c-1.6,1.3-3.5,2.2-5.7,2.8c-2.1,0.6-4.3,0.9-6.6,0.9
		c-3.3,0-6.5-0.6-9.6-1.7c-3.1-1.1-5.6-2.8-7.7-4.9l7.3-7.4c1.1,1.4,2.6,2.5,4.5,3.5c1.8,0.9,3.7,1.4,5.5,1.4c0.8,0,1.6-0.1,2.4-0.3
		c0.8-0.2,1.5-0.5,2-0.8c0.6-0.4,1.1-0.9,1.4-1.6s0.5-1.4,0.5-2.3c0-0.9-0.2-1.6-0.7-2.2c-0.4-0.6-1.1-1.2-1.9-1.7
		c-0.8-0.5-1.8-1-3-1.4c-1.2-0.4-2.5-0.9-4.1-1.3c-1.5-0.5-2.9-1-4.3-1.7c-1.4-0.7-2.7-1.5-3.8-2.5c-1.1-1-2-2.3-2.7-3.7
		c-0.7-1.5-1-3.2-1-5.3c0-2.6,0.5-4.8,1.6-6.6c1-1.8,2.4-3.3,4.1-4.5c1.7-1.2,3.6-2,5.7-2.6c2.1-0.5,4.3-0.8,6.4-0.8
		c2.6,0,5.3,0.5,8,1.4c2.7,1,5.1,2.4,7.1,4.2L579.1,55.7z"/>
</g>
<g>
	<path id="SVGID_x5F_3_x5F_" fill="none" d="M-313,75c0,28.8-23.4,52.2-52.2,52.2s-52.2-23.4-52.2-52.2s23.4-52.2,52.2-52.2
		S-313,46.2-313,75z"/>
	<text>	<textPath  xlink:href="#SVGID_x5F_3_x5F_" startOffset="6215.7085%">
<tspan  fill="#0198BA" font-family="'Archer-Bold'" font-size="11.2713" letter-spacing="400">CLEANING	</tspan>	</textPath>
</text>
	<path id="SVGID_x5F_4_x5F_" fill="none" d="M-313,76c0-28.8-23.4-52.2-52.2-52.2s-52.2,23.4-52.2,52.2s23.4,52.2,52.2,52.2
		S-313,104.8-313,76z"/>
	<text>	<textPath  xlink:href="#SVGID_x5F_4_x5F_" startOffset="217.5163%">
<tspan  fill="#0198BA" font-family="'Archer-Bold'" font-size="11.2713" letter-spacing="400">SERVICE</tspan>	</textPath>
</text>
	<path fill="#C2DAE2" d="M-365.1,140.2c-38.4,0-69.6-31.2-69.6-69.6s31.2-69.6,69.6-69.6s69.6,31.2,69.6,69.6
		S-326.8,140.2-365.1,140.2z M-365.1,4.6c-36.4,0-66.1,29.7-66.1,66.1s29.7,66.1,66.1,66.1c36.4,0,66.1-29.7,66.1-66.1
		S-328.7,4.6-365.1,4.6z"/>
	<path fill="#0198BA" d="M-365.1,135.3c-35.6,0-64.6-29-64.6-64.6S-400.8,6-365.1,6s64.6,29,64.6,64.6S-329.5,135.3-365.1,135.3z
		 M-365.1,6.9c-35.2,0-63.8,28.6-63.8,63.8s28.6,63.8,63.8,63.8c35.2,0,63.8-28.6,63.8-63.8S-330,6.9-365.1,6.9z"/>
	<polygon fill="#0198BA" points="-390.2,85 -392,83.2 -392.8,85 -408,85 -408,48.6 -408.1,48.6 -409.9,46.8 -412.2,48.6 -412,48.6 
		-419.2,48.6 -419.2,92.3 -421.1,92.9 -419.2,94.7 -390.2,94.7 -390.2,85 	"/>
	<path fill="#C2DAE2" d="M-421.1,92.9V46.8h11.2v36.4h17.8v9.7H-421.1z"/>
	<path fill="#0198BA" d="M-352.1,83.2l10-13.3h-0.1l-1.8-1.8l-3.1,2.4l0.4,0.2c-0.2,0-0.3,0-0.5,0c-0.2,0-0.5,0.1-0.8,0.3
		c-0.2,0.2-0.4,0.4-0.7,0.5c-0.1,0-0.2,0.1-0.3,0.1c-0.9,0.3-1.6-0.4-1.8-1.2c-1.2,0.4-5,4.6-5.3,5c-0.8,1-1.4,1.8-2.7,2
		c-2,0.3-4.7-1.6-5.8-3.3c-0.3-0.1-0.5-0.3-0.7-0.5c-0.2-0.2-0.4-0.5-0.4-0.9v0c0-0.7,0.5-1.1,1-1.3l0.1-0.1
		c1.3-0.7,2.5-1.4,3.6-2.1c1.1-0.8,2.1-1.7,3-2.6c0.8-1,1.5-2.1,2-3.3c0.5-1.2,0.7-2.5,0.7-4c0-2-0.4-3.8-1.2-5.3
		c-0.1-0.3-0.3-0.5-0.5-0.8c0,0,0,0,0,0s-3.6-6.1-10.8-7.2c0,0,0.7,0.8,1.6,1.8c-1.1-0.2-2.2-0.3-3.2-0.3c-1.7,0-3.4,0.2-5.1,0.7
		c-1.7,0.4-3.3,1.1-4.6,2.1c-1.4,1-2.5,2.2-3.4,3.6c-0.9,1.5-1.3,3.3-1.3,5.3c0,2,0.4,3.8,1.3,5.5c0.9,1.6,2,3.2,3.4,4.6
		c-1.3,0.6-2.5,1.2-3.6,2c-1.2,0.8-2.2,1.7-3.1,2.7c-0.9,1-1.6,2.2-2.1,3.6c-0.5,1.3-0.8,2.8-0.8,4.4c0,1.3,0.2,2.6,0.5,3.7
		l-1.5-0.6c0,0,1.5,4.1,5.9,7.2c0.1,0,0.1,0.1,0.1,0.1c1.5,1.2,3.3,2,5.3,2.5c0,0,0,0,0,0c0,0,0.1,0,0.1,0l0,0c2,0.5,3.9,0.8,6,0.8
		c3.2,0,5.9-0.5,8-1.5c2.1-1,4-2.3,5.4-3.9l4.4,4.5h13.5L-352.1,83.2z M-372.2,56.3c0.8-0.8,1.9-1.2,3.2-1.2c1.3,0,2.4,0.4,3.2,1.2
		c0.8,0.8,1.2,1.8,1.2,3c0,1.4-0.5,2.6-1.6,3.6c-1,1-2.3,1.8-3.8,2.4c-1.1-0.9-2-1.9-2.6-2.9c-0.6-1-0.9-2-0.9-3.1
		C-373.5,58.1-373.1,57.1-372.2,56.3z M-367.7,86.2c-1.1,0.6-2.4,0.9-3.8,0.9c-0.8,0-1.5-0.1-2.3-0.4c-0.7-0.3-1.4-0.6-2-1.1
		c-0.6-0.5-1.1-1.1-1.4-1.8c-0.4-0.7-0.6-1.5-0.6-2.4c0-1.7,0.5-3.1,1.5-4c1-0.9,2.1-1.7,3.4-2.2l8.1,8.5
		C-365.6,84.7-366.6,85.6-367.7,86.2z"/>
	<path fill="#C2DAE2" d="M-355.9,92.8l-4.4-4.5c-1.5,1.6-3.3,2.9-5.4,3.9c-2.1,1-4.8,1.5-8,1.5c-2.1,0-4.1-0.3-6.1-0.8
		c-2-0.5-3.8-1.4-5.3-2.5c-1.5-1.1-2.8-2.6-3.7-4.3c-0.9-1.7-1.4-3.7-1.4-6.1c0-1.6,0.3-3.1,0.8-4.4c0.5-1.3,1.2-2.5,2.1-3.6
		c0.9-1,1.9-2,3.1-2.7c1.2-0.8,2.4-1.5,3.6-2c-1.4-1.4-2.6-2.9-3.4-4.6c-0.9-1.6-1.3-3.5-1.3-5.5c0-2.1,0.4-3.9,1.3-5.3
		c0.9-1.5,2-2.7,3.4-3.6c1.4-1,2.9-1.6,4.6-2.1c1.7-0.4,3.4-0.7,5.1-0.7c1.7,0,3.4,0.2,5.1,0.7c1.7,0.5,3.2,1.2,4.5,2.1
		c1.3,1,2.4,2.2,3.2,3.6c0.8,1.5,1.2,3.2,1.2,5.3c0,1.5-0.2,2.8-0.7,4c-0.5,1.2-1.1,2.3-2,3.3c-0.8,1-1.8,1.9-3,2.6
		c-1.1,0.8-2.3,1.5-3.6,2.1l5.8,5.9l4.6-7.1h11.8l-10,13.3l11.5,11.4H-355.9z M-374.7,73.3c-1.3,0.5-2.4,1.2-3.4,2.2
		c-1,0.9-1.5,2.3-1.5,4c0,0.9,0.2,1.7,0.6,2.4c0.4,0.7,0.8,1.3,1.4,1.8c0.6,0.5,1.2,0.9,2,1.1c0.7,0.3,1.5,0.4,2.3,0.4
		c1.4,0,2.7-0.3,3.8-0.9c1.1-0.6,2.1-1.5,2.9-2.6L-374.7,73.3z M-366.5,57.5c0-1.2-0.4-2.2-1.2-3c-0.8-0.8-1.8-1.2-3.2-1.2
		c-1.3,0-2.3,0.4-3.2,1.2c-0.8,0.8-1.3,1.8-1.3,3c0,1.1,0.3,2.1,0.9,3.1c0.6,1,1.4,2,2.6,2.9c1.5-0.6,2.7-1.4,3.8-2.4
		C-367.1,60.1-366.5,58.9-366.5,57.5z"/>
	<g>
		<path fill="#0198BA" d="M-307.8,76.9L-307.8,76.9c0,0,0-0.1-0.1-0.4c-0.2-0.5-0.4-0.9-0.6-1.3c-0.1-0.1-0.2-0.3-0.3-0.4
			c-1.3-2.2-4-5.7-8.9-7.6l0.8,1.5c-1.6-0.6-3.1-1.1-4.6-1.6c-1.1-0.3-2.1-0.7-2.9-1c-0.9-0.3-1.6-0.7-2.2-1.1
			c-0.6-0.4-1.1-0.8-1.4-1.4c-0.3-0.5-0.5-1.2-0.5-2c0-0.9,0.2-1.7,0.6-2.2c0.4-0.6,0.9-1.1,1.5-1.4c0.6-0.4,1.3-0.6,2.1-0.7
			c0.7-0.1,1.5-0.2,2.2-0.2c4.3,0.5,7.3,5.1,7.3,5.1l7-7.5l-0.9-3.1l-4.3,4.5l-1.2-1.3c0.2-0.7,0.4-1.3,0.7-2
			c0.4-0.8,0.9-1.8,1.6-2.4c0.1-0.1,0.1-0.1,0.2-0.1c-0.7-0.3-1.4-0.7-2.2-0.9c-2.7-1-5.4-1.4-8-1.4c-2.2,0-4.3,0.3-6.4,0.8
			c-2.1,0.5-4,1.4-5.7,2.6c-1.7,1.2-3.1,2.7-4.1,4.5c-1,1.8-1.6,4-1.6,6.6c0,1.2,0.1,2.2,0.3,3.2l-1.4-0.2c1.3,3.4,4.2,5.8,6.1,7.1
			c0.3,0.2,0.6,0.4,0.9,0.6c0.2,0.1,0.3,0.2,0.4,0.2c0,0,0.1,0.1,0.1,0.1c0.2,0.1,0.3,0.2,0.3,0.2l0,0c0.2,0.1,0.5,0.3,0.7,0.4
			c1.4,0.7,2.9,1.2,4.3,1.7c1.5,0.5,2.9,0.9,4.1,1.3c1.2,0.4,2.2,0.9,3,1.4c0.8,0.5,1.4,1.1,1.9,1.7c0.4,0.6,0.7,1.3,0.7,2.2
			c0,0.9-0.2,1.7-0.5,2.3c-0.3,0.7-0.8,1.2-1.4,1.6c-0.6,0.4-1.3,0.7-2,0.8c-0.8,0.2-1.6,0.3-2.4,0.3c-1.8,0-3.7-0.5-5.5-1.4
			c-1.8-0.9-3.3-2.1-4.5-3.5l-7,7.1l-0.7-1.1l-1.6-0.5l1.9,2c2,2.1,4.6,3.8,7.7,4.9c3.1,1.1,6.3,1.7,9.6,1.7c2.3,0,4.4-0.3,6.6-0.9
			c2.1-0.6,4-1.5,5.7-2.8c1.6-1.3,3-2.9,3.9-4.8c1-1.9,1.5-4.2,1.5-6.9C-307.2,79.5-307.4,78.1-307.8,76.9z"/>
	</g>
	<path fill="#C2DAE2" d="M-315.9,59.2c-1-1.2-2.2-2.2-3.7-2.9c-1.5-0.7-3-1.1-4.5-1.1c-0.7,0-1.5,0.1-2.2,0.2
		c-0.8,0.1-1.4,0.4-2.1,0.7c-0.6,0.4-1.1,0.8-1.5,1.4c-0.4,0.6-0.6,1.3-0.6,2.2c0,0.8,0.2,1.4,0.5,2c0.3,0.5,0.8,1,1.4,1.4
		c0.6,0.4,1.4,0.7,2.2,1.1c0.9,0.3,1.8,0.7,2.9,1c1.6,0.5,3.2,1.1,4.9,1.7c1.7,0.6,3.2,1.5,4.6,2.5c1.4,1,2.5,2.3,3.4,3.9
		c0.9,1.5,1.4,3.5,1.4,5.8c0,2.6-0.5,4.9-1.5,6.9c-1,1.9-2.3,3.5-3.9,4.8c-1.6,1.3-3.5,2.2-5.7,2.8c-2.1,0.6-4.3,0.9-6.6,0.9
		c-3.3,0-6.5-0.6-9.6-1.7c-3.1-1.1-5.6-2.8-7.7-4.9l7.3-7.4c1.1,1.4,2.6,2.5,4.5,3.5c1.8,0.9,3.7,1.4,5.5,1.4c0.8,0,1.6-0.1,2.4-0.3
		c0.8-0.2,1.5-0.5,2-0.8c0.6-0.4,1.1-0.9,1.4-1.6c0.3-0.7,0.5-1.4,0.5-2.3c0-0.9-0.2-1.6-0.7-2.2c-0.4-0.6-1.1-1.2-1.9-1.7
		c-0.8-0.5-1.8-1-3-1.4c-1.2-0.4-2.5-0.9-4.1-1.3c-1.5-0.5-2.9-1-4.3-1.7c-1.4-0.7-2.7-1.5-3.8-2.5c-1.1-1-2-2.3-2.7-3.7
		c-0.7-1.5-1-3.2-1-5.3c0-2.6,0.5-4.8,1.6-6.6c1-1.8,2.4-3.3,4.1-4.5c1.7-1.2,3.6-2,5.7-2.6c2.1-0.5,4.3-0.8,6.4-0.8
		c2.6,0,5.3,0.5,8,1.4c2.7,1,5.1,2.4,7.1,4.2L-315.9,59.2z"/>
</g>
<g>
	<path id="SVGID_x5F_5_x5F_" fill="none" d="M-507.5,251c0,28.8-23.4,52.2-52.2,52.2s-52.2-23.4-52.2-52.2s23.4-52.2,52.2-52.2
		S-507.5,222.2-507.5,251z"/>
	<text>	<textPath  xlink:href="#SVGID_x5F_5_x5F_" startOffset="6215.7085%">
<tspan  fill="#B2C4CA" font-family="'Archer-Bold'" font-size="11.2713" letter-spacing="400">CLEANING	</tspan>	</textPath>
</text>
	<path id="SVGID_x5F_6_x5F_" fill="none" d="M-507.5,252c0-28.8-23.4-52.2-52.2-52.2s-52.2,23.4-52.2,52.2s23.4,52.2,52.2,52.2
		S-507.5,280.8-507.5,252z"/>
	<text>	<textPath  xlink:href="#SVGID_x5F_6_x5F_" startOffset="217.5163%">
<tspan  fill="#B2C4CA" font-family="'Archer-Bold'" font-size="11.2713" letter-spacing="400">SERVICE</tspan>	</textPath>
</text>
	<path fill="#44C8F5" d="M-559.6,316.2c-38.4,0-69.6-31.2-69.6-69.6s31.2-69.6,69.6-69.6c38.4,0,69.6,31.2,69.6,69.6
		S-521.2,316.2-559.6,316.2z M-559.6,180.6c-36.4,0-66.1,29.7-66.1,66.1s29.7,66.1,66.1,66.1c36.4,0,66.1-29.7,66.1-66.1
		S-523.1,180.6-559.6,180.6z"/>
	<path fill="#44C8F5" d="M-559.6,311.3c-35.6,0-64.6-29-64.6-64.6s29-64.6,64.6-64.6c35.6,0,64.6,29,64.6,64.6
		S-523.9,311.3-559.6,311.3z M-559.6,182.9c-35.2,0-63.8,28.6-63.8,63.8s28.6,63.8,63.8,63.8c35.2,0,63.8-28.6,63.8-63.8
		S-524.4,182.9-559.6,182.9z"/>
	<polygon fill="#B2C4CA" points="-584.7,261 -586.5,259.2 -587.2,261 -602.5,261 -602.5,224.6 -602.5,224.6 -604.4,222.8 
		-606.6,224.6 -606.5,224.6 -613.7,224.6 -613.7,268.3 -615.5,268.9 -613.7,270.7 -584.7,270.7 -584.7,261 	"/>
	<path fill="#44C8F5" d="M-615.5,268.9v-46.1h11.2v36.4h17.8v9.7H-615.5z"/>
	<path fill="#B2C4CA" d="M-546.5,259.2l10-13.3h-0.1l-1.8-1.8l-3.1,2.4l0.4,0.2c-0.2,0-0.3,0-0.5,0c-0.2,0-0.5,0.1-0.8,0.3
		c-0.2,0.2-0.4,0.4-0.7,0.5c-0.1,0-0.2,0.1-0.3,0.1c-0.9,0.3-1.6-0.4-1.8-1.2c-1.2,0.4-5,4.6-5.3,5c-0.8,1-1.4,1.8-2.7,2
		c-2,0.3-4.7-1.6-5.8-3.3c-0.3-0.1-0.5-0.3-0.7-0.5c-0.2-0.2-0.4-0.5-0.4-0.9v0c0-0.7,0.5-1.1,1-1.3l0.1-0.1
		c1.3-0.7,2.5-1.4,3.6-2.1c1.1-0.8,2.1-1.7,3-2.6c0.8-1,1.5-2.1,2-3.3c0.5-1.2,0.7-2.5,0.7-4c0-2-0.4-3.8-1.2-5.3
		c-0.1-0.3-0.3-0.5-0.5-0.8c0,0,0,0,0,0s-3.6-6.1-10.8-7.2c0,0,0.7,0.8,1.6,1.8c-1.1-0.2-2.2-0.3-3.2-0.3c-1.7,0-3.4,0.2-5.1,0.7
		c-1.7,0.4-3.3,1.1-4.6,2.1c-1.4,1-2.5,2.2-3.4,3.6c-0.9,1.5-1.3,3.3-1.3,5.3c0,2,0.4,3.8,1.3,5.5c0.9,1.6,2,3.2,3.4,4.6
		c-1.3,0.6-2.5,1.2-3.6,2c-1.2,0.8-2.2,1.7-3.1,2.7c-0.9,1-1.6,2.2-2.1,3.6c-0.5,1.3-0.8,2.8-0.8,4.4c0,1.3,0.2,2.6,0.5,3.7
		l-1.5-0.6c0,0,1.5,4.1,5.9,7.2c0.1,0,0.1,0.1,0.1,0.1c1.5,1.1,3.3,2,5.3,2.5c0,0,0,0,0,0c0,0,0.1,0,0.1,0l0,0c2,0.5,3.9,0.8,6,0.8
		c3.2,0,5.9-0.5,8-1.5c2.1-1,4-2.3,5.4-3.9l4.4,4.5h13.5L-546.5,259.2z M-566.7,232.3c0.8-0.8,1.9-1.2,3.2-1.2
		c1.3,0,2.4,0.4,3.2,1.2c0.8,0.8,1.2,1.8,1.2,3c0,1.4-0.5,2.6-1.6,3.6c-1,1-2.3,1.8-3.8,2.4c-1.1-0.9-2-1.9-2.6-2.9
		c-0.6-1-0.9-2-0.9-3.1C-567.9,234.1-567.5,233.1-566.7,232.3z M-562.1,262.2c-1.1,0.6-2.4,0.9-3.8,0.9c-0.8,0-1.5-0.1-2.3-0.4
		c-0.7-0.3-1.4-0.6-2-1.1c-0.6-0.5-1.1-1.1-1.4-1.8c-0.4-0.7-0.6-1.5-0.6-2.4c0-1.7,0.5-3.1,1.5-4c1-0.9,2.1-1.7,3.4-2.2l8.1,8.5
		C-560,260.7-561,261.6-562.1,262.2z"/>
	<path fill="#44C8F5" d="M-550.4,268.8l-4.4-4.5c-1.5,1.6-3.3,2.9-5.4,3.9c-2.1,1-4.8,1.5-8,1.5c-2.1,0-4.1-0.3-6.1-0.8
		c-2-0.5-3.8-1.4-5.3-2.5c-1.5-1.1-2.8-2.6-3.7-4.3c-0.9-1.7-1.4-3.7-1.4-6.1c0-1.6,0.3-3.1,0.8-4.4c0.5-1.3,1.2-2.5,2.1-3.6
		c0.9-1,1.9-2,3.1-2.7c1.2-0.8,2.4-1.5,3.6-2c-1.4-1.4-2.6-2.9-3.4-4.6c-0.9-1.6-1.3-3.5-1.3-5.5c0-2.1,0.4-3.9,1.3-5.3
		c0.9-1.5,2-2.7,3.4-3.6c1.4-1,2.9-1.6,4.6-2.1c1.7-0.4,3.4-0.7,5.1-0.7c1.7,0,3.4,0.2,5.1,0.7c1.7,0.5,3.2,1.2,4.5,2.1
		c1.3,1,2.4,2.2,3.2,3.6c0.8,1.5,1.2,3.2,1.2,5.3c0,1.5-0.2,2.8-0.7,4c-0.5,1.2-1.1,2.3-2,3.3c-0.8,1-1.8,1.9-3,2.6
		c-1.1,0.8-2.3,1.5-3.6,2.1l5.8,5.9l4.6-7.1h11.8l-10,13.3l11.5,11.4H-550.4z M-569.2,249.3c-1.3,0.5-2.4,1.2-3.4,2.2
		c-1,0.9-1.5,2.3-1.5,4c0,0.9,0.2,1.7,0.6,2.4c0.4,0.7,0.8,1.3,1.4,1.8c0.6,0.5,1.2,0.9,2,1.1c0.7,0.3,1.5,0.4,2.3,0.4
		c1.4,0,2.7-0.3,3.8-0.9c1.1-0.6,2.1-1.5,2.9-2.6L-569.2,249.3z M-561,233.5c0-1.2-0.4-2.2-1.2-3c-0.8-0.8-1.8-1.2-3.2-1.2
		c-1.3,0-2.3,0.4-3.2,1.2c-0.8,0.8-1.3,1.8-1.3,3c0,1.1,0.3,2.1,0.9,3.1c0.6,1,1.4,2,2.6,2.9c1.5-0.6,2.7-1.4,3.8-2.4
		C-561.5,236.1-561,234.9-561,233.5z"/>
	<g>
		<path fill="#B2C4CA" d="M-502.3,252.9L-502.3,252.9c0,0,0-0.1-0.1-0.4c-0.2-0.5-0.4-0.9-0.6-1.3c-0.1-0.1-0.2-0.3-0.3-0.4
			c-1.3-2.2-4-5.7-8.9-7.6l0.8,1.5c-1.6-0.6-3.1-1.1-4.6-1.6c-1.1-0.3-2.1-0.7-2.9-1c-0.9-0.3-1.6-0.7-2.2-1.1
			c-0.6-0.4-1.1-0.8-1.4-1.4c-0.3-0.5-0.5-1.2-0.5-2c0-0.9,0.2-1.7,0.6-2.2c0.4-0.6,0.9-1.1,1.5-1.4c0.6-0.4,1.3-0.6,2.1-0.7
			c0.7-0.1,1.5-0.2,2.2-0.2c4.3,0.5,7.3,5.1,7.3,5.1l7-7.5l-0.9-3.1l-4.3,4.5l-1.2-1.3c0.2-0.7,0.4-1.3,0.7-2
			c0.4-0.8,0.9-1.8,1.6-2.4c0.1-0.1,0.1-0.1,0.2-0.1c-0.7-0.3-1.4-0.7-2.2-0.9c-2.7-1-5.4-1.4-8-1.4c-2.2,0-4.3,0.3-6.4,0.8
			c-2.1,0.5-4,1.4-5.7,2.6c-1.7,1.2-3.1,2.7-4.1,4.5c-1,1.8-1.6,4-1.6,6.6c0,1.2,0.1,2.2,0.3,3.2l-1.4-0.2c1.3,3.4,4.2,5.8,6.1,7.1
			c0.3,0.2,0.6,0.4,0.9,0.6c0.2,0.1,0.3,0.2,0.4,0.2c0,0,0.1,0.1,0.1,0.1c0.2,0.1,0.3,0.2,0.3,0.2l0,0c0.2,0.1,0.5,0.3,0.7,0.4
			c1.4,0.7,2.9,1.2,4.3,1.7c1.5,0.5,2.9,0.9,4.1,1.3c1.2,0.4,2.2,0.9,3,1.4c0.8,0.5,1.4,1.1,1.9,1.7c0.4,0.6,0.7,1.3,0.7,2.2
			c0,0.9-0.2,1.7-0.5,2.3c-0.3,0.7-0.8,1.2-1.4,1.6c-0.6,0.4-1.3,0.7-2,0.8c-0.8,0.2-1.6,0.3-2.4,0.3c-1.8,0-3.7-0.5-5.5-1.4
			c-1.8-0.9-3.3-2.1-4.5-3.5l-7,7.1l-0.7-1.1l-1.6-0.5l1.9,2c2,2.1,4.6,3.8,7.7,4.9c3.1,1.1,6.3,1.7,9.6,1.7c2.3,0,4.4-0.3,6.6-0.9
			c2.1-0.6,4-1.5,5.7-2.8c1.6-1.3,3-2.9,3.9-4.8c1-1.9,1.5-4.2,1.5-6.9C-501.6,255.5-501.9,254.1-502.3,252.9z"/>
	</g>
	<path fill="#44C8F5" d="M-510.3,235.2c-1-1.2-2.2-2.2-3.7-2.9c-1.5-0.7-3-1.1-4.5-1.1c-0.7,0-1.5,0.1-2.2,0.2
		c-0.8,0.1-1.4,0.4-2.1,0.7c-0.6,0.4-1.1,0.8-1.5,1.4c-0.4,0.6-0.6,1.3-0.6,2.2c0,0.8,0.2,1.4,0.5,2c0.3,0.5,0.8,1,1.4,1.4
		c0.6,0.4,1.4,0.7,2.2,1.1c0.9,0.3,1.8,0.7,2.9,1c1.6,0.5,3.2,1.1,4.9,1.7c1.7,0.6,3.2,1.5,4.6,2.5c1.4,1,2.5,2.3,3.4,3.9
		c0.9,1.5,1.4,3.5,1.4,5.8c0,2.6-0.5,4.9-1.5,6.9c-1,1.9-2.3,3.5-3.9,4.8c-1.6,1.3-3.5,2.2-5.7,2.8c-2.1,0.6-4.3,0.9-6.6,0.9
		c-3.3,0-6.5-0.6-9.6-1.7c-3.1-1.1-5.6-2.8-7.7-4.9l7.3-7.4c1.1,1.4,2.6,2.5,4.5,3.5c1.8,0.9,3.7,1.4,5.5,1.4c0.8,0,1.6-0.1,2.4-0.3
		c0.8-0.2,1.5-0.5,2-0.8c0.6-0.4,1.1-0.9,1.4-1.6c0.3-0.7,0.5-1.4,0.5-2.3c0-0.9-0.2-1.6-0.7-2.2c-0.4-0.6-1.1-1.2-1.9-1.7
		c-0.8-0.5-1.8-1-3-1.4c-1.2-0.4-2.5-0.9-4.1-1.3c-1.5-0.5-2.9-1-4.3-1.7c-1.4-0.7-2.7-1.5-3.8-2.5c-1.1-1-2-2.3-2.7-3.7
		c-0.7-1.5-1-3.2-1-5.3c0-2.6,0.5-4.8,1.6-6.6c1-1.8,2.4-3.3,4.1-4.5c1.7-1.2,3.6-2,5.7-2.6c2.1-0.5,4.3-0.8,6.4-0.8
		c2.6,0,5.3,0.5,8,1.4c2.7,1,5.1,2.4,7.1,4.2L-510.3,235.2z"/>
</g>
<g>
	<path id="SVGID_x5F_7_x5F_" fill="none" d="M-313,251c0,28.8-23.4,52.2-52.2,52.2s-52.2-23.4-52.2-52.2s23.4-52.2,52.2-52.2
		S-313,222.2-313,251z"/>
	<text>	<textPath  xlink:href="#SVGID_x5F_7_x5F_" startOffset="6215.7085%">
<tspan  fill="#007CAB" font-family="'Archer-Bold'" font-size="11.2713" letter-spacing="400">CLEANING	</tspan>	</textPath>
</text>
	<path id="SVGID_x5F_8_x5F_" fill="none" d="M-313,252c0-28.8-23.4-52.2-52.2-52.2s-52.2,23.4-52.2,52.2s23.4,52.2,52.2,52.2
		S-313,280.8-313,252z"/>
	<text>	<textPath  xlink:href="#SVGID_x5F_8_x5F_" startOffset="217.5163%">
<tspan  fill="#007CAB" font-family="'Archer-Bold'" font-size="11.2713" letter-spacing="400">SERVICE</tspan>	</textPath>
</text>
	<path fill="#00AADB" d="M-365.1,316.2c-38.4,0-69.6-31.2-69.6-69.6s31.2-69.6,69.6-69.6s69.6,31.2,69.6,69.6
		S-326.8,316.2-365.1,316.2z M-365.1,180.6c-36.4,0-66.1,29.7-66.1,66.1s29.7,66.1,66.1,66.1c36.4,0,66.1-29.7,66.1-66.1
		S-328.7,180.6-365.1,180.6z"/>
	<path fill="#007CAB" d="M-365.1,311.3c-35.6,0-64.6-29-64.6-64.6s29-64.6,64.6-64.6s64.6,29,64.6,64.6S-329.5,311.3-365.1,311.3z
		 M-365.1,182.9c-35.2,0-63.8,28.6-63.8,63.8s28.6,63.8,63.8,63.8c35.2,0,63.8-28.6,63.8-63.8S-330,182.9-365.1,182.9z"/>
	<polygon fill="#007CAB" points="-390.2,261 -392,259.2 -392.8,261 -408,261 -408,224.6 -408.1,224.6 -409.9,222.8 -412.2,224.6 
		-412,224.6 -419.2,224.6 -419.2,268.3 -421.1,268.9 -419.2,270.7 -390.2,270.7 -390.2,261 	"/>
	<path fill="#00AADB" d="M-421.1,268.9v-46.1h11.2v36.4h17.8v9.7H-421.1z"/>
	<path fill="#007CAB" d="M-352.1,259.2l10-13.3h-0.1l-1.8-1.8l-3.1,2.4l0.4,0.2c-0.2,0-0.3,0-0.5,0c-0.2,0-0.5,0.1-0.8,0.3
		c-0.2,0.2-0.4,0.4-0.7,0.5c-0.1,0-0.2,0.1-0.3,0.1c-0.9,0.3-1.6-0.4-1.8-1.2c-1.2,0.4-5,4.6-5.3,5c-0.8,1-1.4,1.8-2.7,2
		c-2,0.3-4.7-1.6-5.8-3.3c-0.3-0.1-0.5-0.3-0.7-0.5c-0.2-0.2-0.4-0.5-0.4-0.9v0c0-0.7,0.5-1.1,1-1.3l0.1-0.1
		c1.3-0.7,2.5-1.4,3.6-2.1c1.1-0.8,2.1-1.7,3-2.6c0.8-1,1.5-2.1,2-3.3c0.5-1.2,0.7-2.5,0.7-4c0-2-0.4-3.8-1.2-5.3
		c-0.1-0.3-0.3-0.5-0.5-0.8c0,0,0,0,0,0s-3.6-6.1-10.8-7.2c0,0,0.7,0.8,1.6,1.8c-1.1-0.2-2.2-0.3-3.2-0.3c-1.7,0-3.4,0.2-5.1,0.7
		c-1.7,0.4-3.3,1.1-4.6,2.1c-1.4,1-2.5,2.2-3.4,3.6c-0.9,1.5-1.3,3.3-1.3,5.3c0,2,0.4,3.8,1.3,5.5c0.9,1.6,2,3.2,3.4,4.6
		c-1.3,0.6-2.5,1.2-3.6,2c-1.2,0.8-2.2,1.7-3.1,2.7c-0.9,1-1.6,2.2-2.1,3.6c-0.5,1.3-0.8,2.8-0.8,4.4c0,1.3,0.2,2.6,0.5,3.7
		l-1.5-0.6c0,0,1.5,4.1,5.9,7.2c0.1,0,0.1,0.1,0.1,0.1c1.5,1.1,3.3,2,5.3,2.5c0,0,0,0,0,0c0,0,0.1,0,0.1,0l0,0c2,0.5,3.9,0.8,6,0.8
		c3.2,0,5.9-0.5,8-1.5c2.1-1,4-2.3,5.4-3.9l4.4,4.5h13.5L-352.1,259.2z M-372.2,232.3c0.8-0.8,1.9-1.2,3.2-1.2
		c1.3,0,2.4,0.4,3.2,1.2c0.8,0.8,1.2,1.8,1.2,3c0,1.4-0.5,2.6-1.6,3.6c-1,1-2.3,1.8-3.8,2.4c-1.1-0.9-2-1.9-2.6-2.9
		c-0.6-1-0.9-2-0.9-3.1C-373.5,234.1-373.1,233.1-372.2,232.3z M-367.7,262.2c-1.1,0.6-2.4,0.9-3.8,0.9c-0.8,0-1.5-0.1-2.3-0.4
		c-0.7-0.3-1.4-0.6-2-1.1c-0.6-0.5-1.1-1.1-1.4-1.8c-0.4-0.7-0.6-1.5-0.6-2.4c0-1.7,0.5-3.1,1.5-4c1-0.9,2.1-1.7,3.4-2.2l8.1,8.5
		C-365.6,260.7-366.6,261.6-367.7,262.2z"/>
	<path fill="#00AADB" d="M-355.9,268.8l-4.4-4.5c-1.5,1.6-3.3,2.9-5.4,3.9c-2.1,1-4.8,1.5-8,1.5c-2.1,0-4.1-0.3-6.1-0.8
		c-2-0.5-3.8-1.4-5.3-2.5c-1.5-1.1-2.8-2.6-3.7-4.3c-0.9-1.7-1.4-3.7-1.4-6.1c0-1.6,0.3-3.1,0.8-4.4c0.5-1.3,1.2-2.5,2.1-3.6
		c0.9-1,1.9-2,3.1-2.7c1.2-0.8,2.4-1.5,3.6-2c-1.4-1.4-2.6-2.9-3.4-4.6c-0.9-1.6-1.3-3.5-1.3-5.5c0-2.1,0.4-3.9,1.3-5.3
		c0.9-1.5,2-2.7,3.4-3.6c1.4-1,2.9-1.6,4.6-2.1c1.7-0.4,3.4-0.7,5.1-0.7c1.7,0,3.4,0.2,5.1,0.7c1.7,0.5,3.2,1.2,4.5,2.1
		c1.3,1,2.4,2.2,3.2,3.6c0.8,1.5,1.2,3.2,1.2,5.3c0,1.5-0.2,2.8-0.7,4c-0.5,1.2-1.1,2.3-2,3.3c-0.8,1-1.8,1.9-3,2.6
		c-1.1,0.8-2.3,1.5-3.6,2.1l5.8,5.9l4.6-7.1h11.8l-10,13.3l11.5,11.4H-355.9z M-374.7,249.3c-1.3,0.5-2.4,1.2-3.4,2.2
		c-1,0.9-1.5,2.3-1.5,4c0,0.9,0.2,1.7,0.6,2.4c0.4,0.7,0.8,1.3,1.4,1.8c0.6,0.5,1.2,0.9,2,1.1c0.7,0.3,1.5,0.4,2.3,0.4
		c1.4,0,2.7-0.3,3.8-0.9c1.1-0.6,2.1-1.5,2.9-2.6L-374.7,249.3z M-366.5,233.5c0-1.2-0.4-2.2-1.2-3c-0.8-0.8-1.8-1.2-3.2-1.2
		c-1.3,0-2.3,0.4-3.2,1.2c-0.8,0.8-1.3,1.8-1.3,3c0,1.1,0.3,2.1,0.9,3.1c0.6,1,1.4,2,2.6,2.9c1.5-0.6,2.7-1.4,3.8-2.4
		C-367.1,236.1-366.5,234.9-366.5,233.5z"/>
	<g>
		<path fill="#007CAB" d="M-307.8,252.9L-307.8,252.9c0,0,0-0.1-0.1-0.4c-0.2-0.5-0.4-0.9-0.6-1.3c-0.1-0.1-0.2-0.3-0.3-0.4
			c-1.3-2.2-4-5.7-8.9-7.6l0.8,1.5c-1.6-0.6-3.1-1.1-4.6-1.6c-1.1-0.3-2.1-0.7-2.9-1c-0.9-0.3-1.6-0.7-2.2-1.1
			c-0.6-0.4-1.1-0.8-1.4-1.4c-0.3-0.5-0.5-1.2-0.5-2c0-0.9,0.2-1.7,0.6-2.2c0.4-0.6,0.9-1.1,1.5-1.4c0.6-0.4,1.3-0.6,2.1-0.7
			c0.7-0.1,1.5-0.2,2.2-0.2c4.3,0.5,7.3,5.1,7.3,5.1l7-7.5l-0.9-3.1l-4.3,4.5l-1.2-1.3c0.2-0.7,0.4-1.3,0.7-2
			c0.4-0.8,0.9-1.8,1.6-2.4c0.1-0.1,0.1-0.1,0.2-0.1c-0.7-0.3-1.4-0.7-2.2-0.9c-2.7-1-5.4-1.4-8-1.4c-2.2,0-4.3,0.3-6.4,0.8
			c-2.1,0.5-4,1.4-5.7,2.6c-1.7,1.2-3.1,2.7-4.1,4.5c-1,1.8-1.6,4-1.6,6.6c0,1.2,0.1,2.2,0.3,3.2l-1.4-0.2c1.3,3.4,4.2,5.8,6.1,7.1
			c0.3,0.2,0.6,0.4,0.9,0.6c0.2,0.1,0.3,0.2,0.4,0.2c0,0,0.1,0.1,0.1,0.1c0.2,0.1,0.3,0.2,0.3,0.2l0,0c0.2,0.1,0.5,0.3,0.7,0.4
			c1.4,0.7,2.9,1.2,4.3,1.7c1.5,0.5,2.9,0.9,4.1,1.3c1.2,0.4,2.2,0.9,3,1.4c0.8,0.5,1.4,1.1,1.9,1.7c0.4,0.6,0.7,1.3,0.7,2.2
			c0,0.9-0.2,1.7-0.5,2.3c-0.3,0.7-0.8,1.2-1.4,1.6c-0.6,0.4-1.3,0.7-2,0.8c-0.8,0.2-1.6,0.3-2.4,0.3c-1.8,0-3.7-0.5-5.5-1.4
			c-1.8-0.9-3.3-2.1-4.5-3.5l-7,7.1l-0.7-1.1l-1.6-0.5l1.9,2c2,2.1,4.6,3.8,7.7,4.9c3.1,1.1,6.3,1.7,9.6,1.7c2.3,0,4.4-0.3,6.6-0.9
			c2.1-0.6,4-1.5,5.7-2.8c1.6-1.3,3-2.9,3.9-4.8c1-1.9,1.5-4.2,1.5-6.9C-307.2,255.5-307.4,254.1-307.8,252.9z"/>
	</g>
	<path fill="#00AADB" d="M-315.9,235.2c-1-1.2-2.2-2.2-3.7-2.9c-1.5-0.7-3-1.1-4.5-1.1c-0.7,0-1.5,0.1-2.2,0.2
		c-0.8,0.1-1.4,0.4-2.1,0.7c-0.6,0.4-1.1,0.8-1.5,1.4c-0.4,0.6-0.6,1.3-0.6,2.2c0,0.8,0.2,1.4,0.5,2c0.3,0.5,0.8,1,1.4,1.4
		c0.6,0.4,1.4,0.7,2.2,1.1c0.9,0.3,1.8,0.7,2.9,1c1.6,0.5,3.2,1.1,4.9,1.7c1.7,0.6,3.2,1.5,4.6,2.5c1.4,1,2.5,2.3,3.4,3.9
		c0.9,1.5,1.4,3.5,1.4,5.8c0,2.6-0.5,4.9-1.5,6.9c-1,1.9-2.3,3.5-3.9,4.8c-1.6,1.3-3.5,2.2-5.7,2.8c-2.1,0.6-4.3,0.9-6.6,0.9
		c-3.3,0-6.5-0.6-9.6-1.7c-3.1-1.1-5.6-2.8-7.7-4.9l7.3-7.4c1.1,1.4,2.6,2.5,4.5,3.5c1.8,0.9,3.7,1.4,5.5,1.4c0.8,0,1.6-0.1,2.4-0.3
		c0.8-0.2,1.5-0.5,2-0.8c0.6-0.4,1.1-0.9,1.4-1.6c0.3-0.7,0.5-1.4,0.5-2.3c0-0.9-0.2-1.6-0.7-2.2c-0.4-0.6-1.1-1.2-1.9-1.7
		c-0.8-0.5-1.8-1-3-1.4c-1.2-0.4-2.5-0.9-4.1-1.3c-1.5-0.5-2.9-1-4.3-1.7c-1.4-0.7-2.7-1.5-3.8-2.5c-1.1-1-2-2.3-2.7-3.7
		c-0.7-1.5-1-3.2-1-5.3c0-2.6,0.5-4.8,1.6-6.6c1-1.8,2.4-3.3,4.1-4.5c1.7-1.2,3.6-2,5.7-2.6c2.1-0.5,4.3-0.8,6.4-0.8
		c2.6,0,5.3,0.5,8,1.4c2.7,1,5.1,2.4,7.1,4.2L-315.9,235.2z"/>
</g>
</svg>
